<svg width="24" height="24" viewBox="0 0 24 24" fill="none" xmlns="http://www.w3.org/2000/svg">
  <path d="M7.79883 16.601C9.09183 18.61 11.8258 20 14.9998 20C15.5898 20 16.1628 19.949 16.7158 19.858L20.9998 22V17.96C22.2408 16.903 22.9998 15.52 22.9998 14C22.9998 12.448 22.2078 11.039 20.9188 9.973" stroke="white" stroke-width="2" stroke-miterlimit="10"></path>
  <path d="M11 1C5.477 1 1 4.582 1 9C1 10.797 1.75 12.45 3 13.785V19L7.833 16.584C8.829 16.85 9.892 17 11 17C16.523 17 21 13.418 21 9C21 4.582 16.523 1 11 1Z" stroke="white" stroke-width="2" stroke-miterlimit="10" stroke-linecap="square"></path>
  </svg>